<svg xmlns="http://www.w3.org/2000/svg" xmlns:xlink="http://www.w3.org/1999/xlink" version="1.1" id="Layer_1" x="0px" y="0px" width="100px" height="100px" viewBox="0 0 100 100" enable-background="new 0 0 100 100" xml:space="preserve">
<g id="Layer_1_1_">
</g>
<path d="M81.27,25.46H18.56c-1.57,0-2.85,1.27-2.85,2.84V65.48c0,1.569,1.28,2.84,2.85,2.84h38.5v-4.61H22.67  c-1.58,0-2.86-1.28-2.86-2.85V33.26c0-1.57,1.28-2.84,2.86-2.84h54.49c1.57,0,2.859,1.27,2.859,2.84v5.73h2.601  c0.76,0,1.5,0.59,1.5,1.02v-11.7C84.12,26.73,82.84,25.46,81.27,25.46z M50.03,29.45c-0.88,0-1.6-0.71-1.6-1.6  c0-0.88,0.72-1.6,1.6-1.6c0.88,0,1.59,0.72,1.59,1.6S50.91,29.45,50.03,29.45z M58.54,63.71v4.61h1.72v-4.61H58.54z M82.11,46.58  v4.67h1.72V42.8c0-1.28-1.05-2.32-2.33-2.32h-1.48v3.78C81.19,44.39,82.11,45.37,82.11,46.58z"/>
<path d="M81.5,40.48H60.88c-1.29,0-2.34,1.04-2.34,2.32v30.41c0,1.29,1.05,2.33,2.33,2.33h15.84v-4.06H62.6  c-0.72,0-1.369-0.32-1.8-0.83V70.64c-0.34-0.409-0.54-0.92-0.54-1.479V46.58c0-1.29,1.05-2.33,2.34-2.33h17.17  c0.08,0,0.171,0,0.25,0.01c1.171,0.13,2.091,1.11,2.091,2.32v4.67h1.72V42.8C83.83,41.52,82.78,40.48,81.5,40.48z M71.3,72.28  c0.72,0,1.311,0.58,1.311,1.3c0,0.729-0.591,1.31-1.311,1.31c-0.729,0-1.31-0.58-1.31-1.31C69.99,72.86,70.57,72.28,71.3,72.28z"/>
<path d="M89.5,52.7H79.45c-0.851,0-1.53,0.68-1.53,1.53V74.21c0,0.58,0.311,1.07,0.78,1.33c0.22,0.13,0.479,0.2,0.75,0.2H89.5  c0.85,0,1.54-0.681,1.54-1.53V54.23C91.04,53.38,90.35,52.7,89.5,52.7z M79.05,56.71c0-0.65,0.4-1.2,0.97-1.42  c0.171-0.07,0.36-0.11,0.561-0.11h7.79c0.85,0,1.54,0.681,1.54,1.53v14.83c0,0.85-0.69,1.53-1.54,1.53h-7.79  c-0.84,0-1.53-0.681-1.53-1.53V56.71z M84.41,75.31c-0.47,0-0.851-0.38-0.851-0.859c0-0.08,0.011-0.15,0.04-0.22  c0.011-0.091,0.051-0.171,0.101-0.24c0,0,0-0.01,0.01-0.021c0.15-0.22,0.41-0.37,0.7-0.37c0.479,0,0.859,0.381,0.859,0.851  C85.27,74.93,84.89,75.31,84.41,75.31z"/>
<path d="M57.06,74c0,0.18-0.06,1.54,1.023,1.54H14.94c-3.26,0-5.9-1.64-5.9-4.9h27.92c0.69,0.721,1.67,1.17,2.75,1.17h17.35V74z"/>
</svg>