<svg xmlns="http://www.w3.org/2000/svg" xmlns:xlink="http://www.w3.org/1999/xlink" version="1.1" id="Web_Design" x="0px" y="0px" width="100px" height="100px" viewBox="0 0 100 100" enable-background="new 0 0 100 100" xml:space="preserve">
<path d="M59.905,80c-0.22,0.61-0.82,1-1.535,1H41.63c-0.715,0-1.315-0.39-1.535-1H7v0.998C7,82.757,8.426,84,10.185,84h79.63  C91.574,84,93,82.757,93,80.998V80H59.905z"/>
<rect x="30" y="43" width="25" height="2"/>
<rect x="30" y="40" width="23" height="2"/>
<rect x="30" y="46" width="21" height="2"/>
<g>
	<path d="M97.037,17.28c0.302-0.302,0.302-0.792,0-1.094l-1.094-1.094c-0.302-0.302-0.792-0.302-1.094,0L68.6,39.154   c-0.302,0.302-0.302,0.792,0,1.094l3.281,3.281c0.302,0.302,0.792,0.302,1.094,0L97.037,17.28z"/>
</g>
<g>
	<path d="M59.528,54.457c1.485-0.742,1.837,0.506,1.837,0.506s5.775-3.675,8.925-9.975c-1.05-1.05-1.575-1.575-1.575-1.575   s-0.707-0.707-1.757-1.757c-6.3,3.15-9.952,8.948-9.952,8.948s1.272,0.375,0.529,1.86c-0.742,1.485-4.136-0.217-5.711,3.458   c-1.308,3.052-3.059,7.441-3.059,7.441s4.298-1.842,7.35-3.15C59.791,58.638,58.043,55.2,59.528,54.457z M54.041,58.088   c-0.566-0.566-0.566-1.484,0-2.05c0.566-0.566,1.484-0.566,2.05,0c0.566,0.566,0.566,1.484,0,2.05   C55.525,58.655,54.607,58.655,54.041,58.088z"/>
</g>
<g>
	<path d="M83.862,34.522C83.942,34.666,84,34.823,84,35v38c0,0.552-0.448,1-1,1H17c-0.552,0-1-0.448-1-1V35c0-0.552,0.448-1,1-1   h54.354l4.364-4H16c-2,0-4,0-4,2v46h76V32c0-0.981-0.003-1.477-0.239-1.732L83.862,34.522z"/>
</g>
<g>
	<path d="M62.439,56.651l-1.936,1.232c-0.245,1.002-0.748,2.157-1.883,3.117H72v2H54.691l-5.137,2.202L48,65.868V68H30v-9h18v0.917   c0.599-1.472,1.347-3.29,1.987-4.782c0.021-0.049,0.046-0.087,0.067-0.135H18v17h64V55H64.642   C63.409,56.023,62.533,56.591,62.439,56.651z M64,66H53v-2h11V66z"/>
</g>
</svg>